# xmcd
#
# Track frame offsets:
#	180
#	15522
#	26403
#	39768
#	52812
#	66571
#	78192
#	90205
#	105862
#	113571
#	128211
#	143042
#	155040
#	168135
#	181469
#	195477
#	205592
#	216633
#
# Disc length: 3010 seconds
#
# Revision: 1
# Processed by: cddbd v1.5.2PL0 Copyright (c) Steve Scherf et al.
# Submitted via: audiograbber 1.83.01
#
DISCID=dc0bc012
DTITLE=Various Artist - Great Voices Of Entertainment -CD 03
DYEAR=1900
DGENRE=Swing
TTITLE0=Fred Astaire - Night And Day
TTITLE1=Fred Astaire - Not My Girl
TTITLE2=Bing Crosby - Stardust
TTITLE3=Judy Garland - Fascinatin' Rhythm
TTITLE4=Frank Sinatra - I'll Be Seeing You
TTITLE5=Judy Garland - When You Wore A Tulip
TTITLE6=Bing Crosby - Deep In The Heart Of Texas
TTITLE7=Perry Como - Prisoner Of Love
TTITLE8=Four Knights - Good News, The Chariots Acomin'
TTITLE9=Doris Day - All Through The Day
TTITLE10=Doris Day - It Could Happen To You
TTITLE11=Frank Sinatra - Tea For Two
TTITLE12=Perry Como - If I'm Lucky
TTITLE13=Mel Tormé - I Got The Sun In The Morning
TTITLE14=Mel Tormé - You're Driving Me Crazy
TTITLE15=Four Knights - It's A Good Day
TTITLE16=Dean Martin - Oh Marie
TTITLE17=Dean Martin - Luna Mezzo Mare
EXTD=CD 3 von 10
EXTT0=
EXTT1=
EXTT2=
EXTT3=
EXTT4=
EXTT5=
EXTT6=
EXTT7=
EXTT8=
EXTT9=
EXTT10=
EXTT11=
EXTT12=
EXTT13=
EXTT14=
EXTT15=
EXTT16=
EXTT17=
PLAYORDER=
